# xmcd
# 
# Track frame offsets:
#     150
#     15352
#     35139
#     54280
#     77992
#     96311
#     120240
#     139472
#     157901
#     173998
#     189811
#     204853
#     228579
#     244951
# 
# Disc length: 3408
# 
# Revision: 0
# Processed by: cddbd v1.5.2PL0 Copyright (c) Steve Scherf et al.
# Submitted via: fre:ac v1.0.31
# 
DISCID=b00d4e0e
DTITLE=John Smith - To An Old Stockman
DYEAR=2017
DGENRE=Country
TTITLE0=Banjos man
TTITLE1=R.M
TTITLE2=To An Old Stockman
TTITLE3=How The Fire Queen Crossed The Swamp
TTITLE4=Since Munros Day
TTITLE5=Trouble On The Eton Range
TTITLE6=Boorooban Beauty
TTITLE7=Taking His Chance
TTITLE8=I Saw A Man
TTITLE9=Mary Jane Malone
TTITLE10=Wake Me Over Canberra
TTITLE11=No More Rattle Of The Chains
TTITLE12=The Hoofbeats Of The Horses
TTITLE13=Corner Country Traveller
EXTD=
EXTT0=
EXTT1=
EXTT2=
EXTT3=
EXTT4=
EXTT5=
EXTT6=
EXTT7=
EXTT8=
EXTT9=
EXTT10=
EXTT11=
EXTT12=
EXTT13=
PLAYORDER=
